<?xml version="1.0" encoding="iso-8859-1"?>
<!-- Uploaded to: SVG Repo, www.svgrepo.com, Generator: SVG Repo Mixer Tools -->
<svg fill="#000000" height="800px" width="800px" version="1.1" id="Layer_1" xmlns="http://www.w3.org/2000/svg" xmlns:xlink="http://www.w3.org/1999/xlink" 
	 viewBox="0 0 512.003 512.003" xml:space="preserve">
<g>
	<g>
		<circle cx="84.368" cy="208.584" r="40.258"/>
	</g>
</g>
<g>
	<g>
		<path d="M196.314,291.322c-4.693-8.916-15.724-12.336-24.636-7.646l-47.671,25.091c-30.708-14.989-61.455-29.995-63.093-30.794
			l43.576,9.815c-2.668-14.389-15.176-24.871-29.813-24.975l-28.096-0.201c-16.984-0.122-30.809,13.651-30.763,30.626
			c0.326,118.736,0.2,109.995,0.282,113.344c0.249,10.277,5.122,20.217,15.242,23.578l8.371,2.779H21.887
			C9.799,432.939,0,442.74,0,454.828s9.799,21.887,21.887,21.887h113.706c13.947,0,25.685-9.994,27.91-23.758
			c2.227-13.768-5.763-26.953-19-31.348l-41.3-13.713l0.764-48.525l-49.239-43.826c4.553,2.223,28.813,14.062,61.382,29.958
			c5.088,2.558,11.289,2.703,16.706-0.149l55.855-29.398C197.581,311.265,201.007,300.239,196.314,291.322z"/>
	</g>
</g>
<g>
	<g>
		<path d="M512,196.757c0-7.192-5.83-13.022-13.022-13.022h-91.716V25.507c0-5.529-4.482-10.012-10.012-10.012H282.546
			c-5.529,0-10.012,4.482-10.012,10.012v158.228h-93.43c-7.192,0-13.021,5.829-13.021,13.022v11.15
			c0,7.192,5.83,13.022,13.021,13.022h19.952v50.949c4.465,3.011,8.272,7.136,10.957,12.236c8.068,15.327,3.174,34.084-10.957,43.62
			v139.873c0,3.553,2.881,6.433,6.433,6.433h68.385v16.036c0,3.553,2.88,6.433,6.433,6.433H402.17c3.553,0,6.433-2.88,6.433-6.433
			v-16.036h67.958c3.553,0,6.433-2.88,6.433-6.433V220.927h15.987c7.192,0,13.022-5.829,13.022-13.022v-11.148H512z
			 M313.584,248.946c9.149-2.476,18.596-3.728,28.175-3.728c9.407,0,18.691,1.208,27.692,3.599c3.78,1.005,5.92,4.998,4.661,8.706
			l-7.243,21.354c-1.124,3.316-4.596,5.227-7.998,4.395c-5.569-1.364-11.302-2.052-17.112-2.052c-5.927,0-11.768,0.716-17.437,2.131
			c-3.403,0.85-6.876-1.041-8.018-4.358l-7.342-21.32C307.686,253.966,309.831,249.962,313.584,248.946z M270.187,447.243
			c0,3.732-3.025,6.757-6.757,6.757h-23.402c-3.732,0-6.757-3.025-6.757-6.757v-13.334c0-3.732,3.025-6.757,6.757-6.757h23.402
			c3.732,0,6.757,3.025,6.757,6.757V447.243z M270.187,352.888v44.87c0,3.732-3.12,7.022-6.852,7.022h-22.489
			c-3.732,0-7.573-3.29-7.573-7.022c0-89.81-0.216-12.796,0.427-46.919c0.062-3.272,3.256-6.978,7.643-6.604l22.563,1.915
			c3.494,0.298,6.282,3.219,6.282,6.725C270.187,352.879,270.187,352.884,270.187,352.888z M276.282,323.703
			c-1.427,3.193-5.061,4.772-8.367,3.628l-21.323-7.379c-3.697-1.279-5.538-5.425-4.008-9.032
			c7.361-17.337,19.283-32.61,34.349-44.003c3.129-2.366,7.603-1.568,9.733,1.684l12.36,18.876c1.922,2.935,1.277,6.838-1.481,9.006
			C288.37,303.697,281.03,313.092,276.282,323.703z M361.659,446.62c0.051-0.238,0.121-0.466,0.164-0.709
			c0.845-4.726,0.854-11.506-0.701-19.216c-1.993-9.887-6.561-21.303-15.243-31.888c-1.137-1.386-2.988-1.965-4.713-1.477
			c-1.725,0.49-2.996,1.955-3.236,3.732c-2.728,20.185-20.526,36.997-20.526,46.628c0,2.011,0.303,3.951,0.845,5.788
			c-12.061-6.233-20.31-18.811-20.31-33.324c0-18.771,30.962-52.404,31.293-92.531c0.017-2.021,1.258-3.829,3.138-4.571
			c1.88-0.742,4.021-0.268,5.414,1.197c17.723,18.649,29.268,39.203,35.765,57.602c1.29-4.557,2.367-9.788,2.646-15.133
			c0.046-0.875,0.71-1.592,1.578-1.705c0.869-0.114,1.695,0.409,1.963,1.244C386.966,384.726,395.937,429.158,361.659,446.62z
			 M407.098,323.398c-4.799-10.59-12.183-19.951-21.392-27.124c-2.763-2.151-3.428-6.061-1.522-9l12.271-18.933
			c2.127-3.281,6.591-4.079,9.726-1.729c15.12,11.323,27.115,26.541,34.557,43.845c1.55,3.604-0.295,7.761-3.964,9.051
			l-21.288,7.478C412.178,328.149,408.546,326.592,407.098,323.398z M449.17,447.243c0,3.732-3.025,6.757-6.757,6.757h-23.402
			c-3.732,0-6.757-3.025-6.757-6.757v-13.334c0-3.732,3.025-6.757,6.757-6.757h23.402c3.732,0,6.757,3.025,6.757,6.757V447.243z
			 M449.17,397.079c0,3.731-2.766,7.701-6.498,7.701h-22.489c-3.732,0-7.927-3.97-7.927-7.701v-44.191c0-0.115,0-0.23,0-0.347
			c0-3.513,3.238-6.439,6.737-6.754l22.748-2.019c3.878-0.348,7.358,2.436,7.457,6.57
			C449.195,350.334,449.17,351.198,449.17,397.079z"/>
	</g>
</g>
</svg>