<?xml version="1.0" encoding="UTF-8"?>
<svg width="64px" height="64px" viewBox="0 0 64 64" version="1.1" xmlns="http://www.w3.org/2000/svg" xmlns:xlink="http://www.w3.org/1999/xlink">
    <title>heater_operation_mode</title>
    <g id="heater_operation_mode" stroke="none" stroke-width="1" fill="none" fill-rule="evenodd">
        <path d="M48,8 C51.3137085,8 54,10.6862915 54,14 L54,54 C54,55.1045695 53.1045695,56 52,56 C50.8954305,56 50,55.1045695 50,54 L50,14 C50,12.8954305 49.1045695,12 48,12 C46.8954305,12 46,12.8954305 46,14 L46,41 C46,44.3137085 43.3137085,47 40,47 C36.6862915,47 34,44.3137085 34,41 L34,14 C34,12.8954305 33.1045695,12 32,12 C30.8954305,12 30,12.8954305 30,14 L30,41 C30,44.3137085 27.3137085,47 24,47 C20.6862915,47 18,44.3137085 18,41 L18,14 C18,12.8954305 17.1045695,12 16,12 C14.8954305,12 14,12.8954305 14,14 L14,54 C14,55.1045695 13.1045695,56 12,56 C10.8954305,56 10,55.1045695 10,54 L10,14 C10,10.6862915 12.6862915,8 16,8 C19.3137085,8 22,10.6862915 22,14 L22,41 C22,42.1045695 22.8954305,43 24,43 C25.1045695,43 26,42.1045695 26,41 L26,14 C26,10.6862915 28.6862915,8 32,8 C35.3137085,8 38,10.6862915 38,14 L38,41 C38,42.1045695 38.8954305,43 40,43 C41.1045695,43 42,42.1045695 42,41 L42,14 C42,10.6862915 44.6862915,8 48,8 Z M32,50 C33.6568542,50 35,51.3431458 35,53 C35,54.6568542 33.6568542,56 32,56 C30.3431458,56 29,54.6568542 29,53 C29,51.3431458 30.3431458,50 32,50 Z M23,50 C24.6568542,50 26,51.3431458 26,53 C26,54.6568542 24.6568542,56 23,56 C21.3431458,56 20,54.6568542 20,53 C20,51.3431458 21.3431458,50 23,50 Z M41,50 C42.6568542,50 44,51.3431458 44,53 C44,54.6568542 42.6568542,56 41,56 C39.3431458,56 38,54.6568542 38,53 C38,51.3431458 39.3431458,50 41,50 Z" id="Shape" fill="#000000" fill-rule="nonzero"></path>
    </g>
</svg>