<?xml version="1.0" encoding="UTF-8"?>
<svg width="64px" height="64px" viewBox="0 0 64 64" version="1.1" xmlns="http://www.w3.org/2000/svg" xmlns:xlink="http://www.w3.org/1999/xlink">
    <title>fan_speed</title>
    <g id="fan_speed" stroke="none" stroke-width="1" fill="none" fill-rule="evenodd">
        <path d="M41,32 L40.9991214,32.1256716 C45.722015,32.5326123 49.7362307,33.9278475 52.1197605,36.3113772 C54.3087173,38.500334 56,41 56,44 C56,47 54.2421809,49.99734 52.1197605,52.1197605 C47.8083832,56.4311377 41.3413174,57.1497006 38.4670659,54.2754491 C35.9723526,51.7807359 39.9735157,46.0380845 36.375278,39.8665504 C39.1338423,38.3294428 41,35.3826536 41,32 Z M24.1330005,36.374895 C25.6705572,39.1338423 28.6173464,41 32,41 L31.9008517,40.9993827 C31.5310781,46.2561052 30.1270018,49.6813814 27.6886228,52.1197605 C25.5971778,54.2112054 23,56 20,56 C17,56 14.1001718,54.3396928 11.8802395,52.1197605 C7.56886228,47.8083832 6.8502994,41.3413174 9.7245509,38.4670659 C12.1886979,36.0029188 17.8216807,39.8764433 23.9067998,36.5041425 L24.1330005,36.374895 Z M32,27 C34.7614237,27 37,29.2385763 37,32 C37,34.7614237 34.7614237,37 32,37 C29.2385763,37 27,34.7614237 27,32 C27,29.2385763 29.2385763,27 32,27 Z M25.5329341,9.7245509 C28.0276474,12.2192641 24.0264843,17.9619155 27.624722,24.1334496 C24.8661577,25.6705572 23,28.6173464 23,32 L23.0006173,31.9008517 C17.7438948,31.5310781 14.3186186,30.1270018 11.8802395,27.6886228 C9.79249838,25.6008816 8,23 8,20 C8,17 9.65660342,14.1038756 11.8802395,11.8802395 C16.1916168,7.56886228 22.6586826,6.8502994 25.5329341,9.7245509 Z M44,8 C47,8 49.922258,9.68273706 52.1197605,11.8802395 C56.4311377,16.1916168 57.1497006,22.6586826 54.2754491,25.5329341 C51.7807359,28.0276474 46.0380845,24.0264843 39.8665504,27.624722 C38.3294428,24.8661577 35.3826536,23 32,23 L32.0991483,23.0006173 C32.4689219,17.7438948 33.8729982,14.3186186 36.3113772,11.8802395 C38.425252,9.76636473 41,8 44,8 Z" id="Combined-Shape" fill="#000000"></path>
    </g>
</svg>