<?xml version="1.0" encoding="utf-8"?>

<!DOCTYPE svg PUBLIC "-//W3C//DTD SVG 1.1//EN" "http://www.w3.org/Graphics/SVG/1.1/DTD/svg11.dtd">
<!-- Uploaded to: SVG Repo, www.svgrepo.com, Generator: SVG Repo Mixer Tools -->
<svg height="800px" width="800px" version="1.1" id="_x32_" xmlns="http://www.w3.org/2000/svg" xmlns:xlink="http://www.w3.org/1999/xlink" 
	 viewBox="0 0 512 512"  xml:space="preserve">
<style type="text/css">
	.st0{fill:#000000;}
</style>
<g>
	<path class="st0" d="M118.613,89.298c9.482,0,17.176-7.686,17.176-17.168v-54.96C135.788,7.687,128.094,0,118.613,0
		c-9.483,0-17.177,7.687-17.177,17.169v54.96C101.436,81.611,109.13,89.298,118.613,89.298z"/>
	<path class="st0" d="M255.992,89.298c9.483,0,17.177-7.686,17.177-17.168v-54.96C273.169,7.687,265.475,0,255.992,0
		c-9.483,0-17.168,7.687-17.168,17.169v54.96C238.824,81.611,246.51,89.298,255.992,89.298z"/>
	<path class="st0" d="M393.372,89.298c9.49,0,17.176-7.686,17.176-17.168v-54.96C410.549,7.687,402.863,0,393.372,0
		c-9.482,0-17.169,7.687-17.169,17.169v54.96C376.204,81.611,383.89,89.298,393.372,89.298z"/>
	<path class="st0" d="M191.142,405.072c32.102,0,56.031-21.572,56.031-54.189c0-23.421-13.152-38.94-23.667-43.411v-0.524
		c13.152-8.68,19.982-22.102,19.982-37.097c0-28.942-19.196-49.456-52.608-49.456c-28.942,0-48.678,16.575-52.625,38.146
		c-0.262,1.573,0.524,2.892,2.113,3.154l22.357,5.264c1.588,0.263,2.636-0.262,3.161-1.842
		c3.161-11.048,10.793-18.418,23.945-18.418c14.987,0,23.93,9.999,23.93,24.207c0,15.782-10.253,26.043-26.042,26.043h-7.108
		c-1.572,0-2.622,1.048-2.622,2.629v20.784c0,1.58,1.049,2.629,2.622,2.629h7.632c17.623,0,29.203,11.055,29.203,29.203
		c0,15.264-9.729,26.574-26.304,26.574c-14.74,0-23.421-8.419-27.106-18.942c-0.524-1.58-1.836-2.104-3.146-1.842l-22.897,5.266
		c-1.572,0.524-2.359,1.834-2.097,3.415C141.416,391.133,163.25,405.072,191.142,405.072z"/>
	<path class="st0" d="M301.385,277.744l27.352-19.204h0.524v141.011c0,1.58,1.064,2.63,2.637,2.63h24.207
		c1.573,0,2.622-1.049,2.622-2.63V225.914c0-1.573-1.048-2.629-2.622-2.629h-22.372c-2.098,0-3.408,0.524-4.734,1.58l-28.663,20.784
		c-1.326,1.048-1.851,2.105-1.851,3.678v26.836C298.486,278.269,299.797,278.793,301.385,277.744z"/>
	<path class="st0" d="M424.288,44.899v27.23c0,17.038-13.862,30.906-30.915,30.906c-17.038,0-30.906-13.869-30.906-30.906v-27.23
		h-75.559v27.23c0,17.038-13.869,30.906-30.914,30.906c-17.038,0-30.906-13.869-30.906-30.906v-27.23h-75.559v27.23
		c0,17.038-13.87,30.906-30.914,30.906c-17.038,0-30.915-13.869-30.915-30.906v-27.23H17.866V512h476.267V44.899H424.288z
		 M450.862,468.735H61.132V143.116h389.73V468.735z"/>
</g>
</svg>