<?xml version="1.0" encoding="UTF-8"?>
<svg width="64px" height="64px" viewBox="0 0 64 64" version="1.1" xmlns="http://www.w3.org/2000/svg" xmlns:xlink="http://www.w3.org/1999/xlink">
    <title>speaker_repeat</title>
    <g id="speaker_repeat" stroke="none" stroke-width="1" fill="none" fill-rule="evenodd">
        <g id="Group-2" transform="translate(32, 32.0001) scale(-1, 1) rotate(-90) translate(-32, -32.0001)translate(8.0074, 8.0001)">
            <g id="Group" transform="translate(23.9926, 24) scale(1, -1) translate(-23.9926, -24)translate(0, 0)" fill="#000000" fill-rule="nonzero">
                <path d="M10.0327063,0.560094302 L17.790342,12.1965478 C17.9173756,12.3870981 17.9851637,12.6109871 17.9851637,12.84 C17.9851637,13.4806503 17.465814,14 16.8251637,14 L10.992,13.999 L10.9926435,36 C10.9926435,40.418278 14.5743655,44 18.9926435,44 L21.9926435,44 C23.097213,44 23.9926435,44.8954305 23.9926435,46 C23.9926435,47.1045695 23.097213,48 21.9926435,48 L18.9926435,48 C12.3652265,48 6.99264348,42.627417 6.99264348,36 L6.992,13.999 L1.16012324,14 C0.976912863,14 0.796981879,13.9566156 0.63477614,13.8742207 L0.516671035,13.8051783 C-0.0163822286,13.4498095 -0.160423912,12.7296011 0.19494493,12.1965478 L7.95258061,0.560094302 C8.04412418,0.422778943 8.16195288,0.304950252 8.29926823,0.213406679 C8.8736791,-0.169533895 9.64976577,-0.0143165589 10.0327063,0.560094302 Z M28.9926435,-5.57169248e-15 C35.6200605,-5.57169248e-15 40.9926435,5.372583 40.9926435,12 L40.992,33.999 L46.8251637,34 C47.465814,34 47.9851637,34.5193497 47.9851637,35.16 C47.9851637,35.3890129 47.9173756,35.6129019 47.790342,35.8034522 L40.0327063,47.4399057 C39.6497658,48.0143166 38.8736791,48.1695339 38.2992682,47.7865933 C38.1619529,47.6950497 38.0441242,47.5772211 37.9525806,47.4399057 L30.1949449,35.8034522 C29.8395761,35.2703989 29.9836178,34.5501905 30.516671,34.1948217 C30.7072213,34.0677881 30.9311103,34 31.1601232,34 L36.992,33.999 L36.9926435,12 C36.9926435,7.581722 33.4109215,4 28.9926435,4 L25.9926435,4 C24.888074,4 23.9926435,3.1045695 23.9926435,2 C23.9926435,0.8954305 24.888074,-5.57169248e-15 25.9926435,-5.57169248e-15 L28.9926435,-5.57169248e-15 Z" id="Combined-Shape"></path>
            </g>
            <g id="Group" transform="translate(25.9926, -1)"></g>
        </g>
    </g>
</svg>